<svg width="22" height="22" viewBox="0 0 22 22" fill="none" xmlns="http://www.w3.org/2000/svg">
<mask id="path-1-inside-1" fill="white">
<path fill-rule="evenodd" clip-rule="evenodd" d="M21.2601 14.9744C21.7379 13.7417 22 12.4014 22 11C22 4.92488 17.0751 1.38941e-05 11 0C17.0752 0 22 4.92487 22 11C22 12.4014 21.7379 13.7417 21.2601 14.9744C21.2601 14.9744 21.2601 14.9744 21.2601 14.9744ZM8.51579 0.281677C9.31411 0.0973912 10.1457 0 11 0C11 0 11 0 11 0C10.1457 0 9.31412 0.0973875 8.51579 0.281677ZM8.02944 0.405783C7.68783 0.501371 7.35293 0.613044 7.02562 0.739921C6.5478 1.9726 6.28572 3.31284 6.28572 4.71428C6.28572 10.7894 11.2106 15.7143 17.2857 15.7143C18.6872 15.7143 20.0274 15.4522 21.2601 14.9744C19.6666 19.0852 15.6737 22 11 22C4.92487 22 0 17.0751 0 11C0 5.9542 3.39738 1.70189 8.02944 0.405783Z"/>
</mask>
<path d="M21.2601 14.9744L22.0029 16.8313L22.8105 16.5083L23.1249 15.6972L21.2601 14.9744ZM7.02562 0.739921L6.30276 -1.12488L5.47982 -0.805876L5.16082 0.017069L7.02562 0.739921ZM20 11C20 12.1503 19.7852 13.2457 19.3953 14.2515L23.1249 15.6972C23.6906 14.2377 24 12.6526 24 11H20ZM11 2C15.9706 2.00001 20 6.02944 20 11H24C24 3.82031 18.1797 -1.99998 11 -2L11 2ZM11 2C15.9706 2 20 6.02944 20 11H24C24 3.8203 18.1797 -2 11 -2V2ZM20 11C20 12.1503 19.7852 13.2457 19.3953 14.2515L23.1249 15.6972C23.6907 14.2377 24 12.6526 24 11H20ZM20.5173 13.1174C20.5436 13.1069 20.5651 13.0989 20.5785 13.0941C20.5853 13.0916 20.5908 13.0897 20.5942 13.0885C20.5972 13.0874 20.5998 13.0865 20.5994 13.0866C20.5994 13.0866 20.5994 13.0866 20.5994 13.0866C20.5994 13.0866 20.5994 13.0866 20.5994 13.0866C20.5994 13.0866 20.5994 13.0867 20.5994 13.0867C20.5994 13.0867 20.5993 13.0867 20.5993 13.0867C20.5993 13.0867 20.5992 13.0867 20.5991 13.0868C20.5989 13.0868 20.5985 13.087 20.5981 13.0871C20.5972 13.0874 20.5959 13.0879 20.5941 13.0885C20.5908 13.0897 20.5853 13.0916 20.5785 13.0941C20.5651 13.099 20.5436 13.1069 20.5173 13.1174L22.0029 16.8313C21.9766 16.8418 21.9551 16.8498 21.9417 16.8546C21.9349 16.8571 21.9294 16.8591 21.926 16.8602C21.923 16.8613 21.9204 16.8622 21.9208 16.8621C21.9208 16.8621 21.9208 16.8621 21.9208 16.8621C21.9208 16.8621 21.9208 16.8621 21.9208 16.8621C21.9208 16.8621 21.9208 16.8621 21.9208 16.8621C21.9208 16.8621 21.9209 16.8621 21.9209 16.8621C21.9209 16.862 21.921 16.862 21.9211 16.862C21.9213 16.8619 21.9217 16.8618 21.9221 16.8616C21.923 16.8613 21.9243 16.8608 21.9261 16.8602C21.9294 16.859 21.9349 16.8571 21.9417 16.8546C21.9551 16.8498 21.9766 16.8418 22.0029 16.8313L20.5173 13.1174ZM8.96564 2.23043C9.61747 2.07996 10.2981 2 11 2V-2C9.99322 -2 9.01075 -1.88518 8.06594 -1.66708L8.96564 2.23043ZM11 2H11H11H11H11C11 2 11 2 11 2C11 2 11 2 11 2C11 2 11 2 11 2C11 2 11 2 11 2C11 2 11 2 11 2C11 2 11 2 11 2C11 2 11 2 11 2C11 2 11 2 11 2C11 2 11 2 11 2C11 2 11 2 11 2C11 2 11 2 11 2C11 2 11 2 11 2C11 2 11 2 11 2C11 2 11 2 11 2C11 2 11 2 11 2C11 2 11 2 11 2C11 2 11 2 11 2C11 2 11 2 11 2H11H11H11H11H11V-2H11H11H11H11H11C11 -2 11 -2 11 -2C11 -2 11 -2 11 -2C11 -2 11 -2 11 -2C11 -2 11 -2 11 -2C11 -2 11 -2 11 -2C11 -2 11 -2 11 -2C11 -2 11 -2 11 -2C11 -2 11 -2 11 -2C11 -2 11 -2 11 -2C11 -2 11 -2 11 -2C11 -2 11 -2 11 -2C11 -2 11 -2 11 -2C11 -2 11 -2 11 -2C11 -2 11 -2 11 -2C11 -2 11 -2 11 -2C11 -2 11 -2 11 -2C11 -2 11 -2 11 -2C11 -2 11 -2 11 -2H11H11H11H11V2ZM8.96564 2.23043C9.61747 2.07996 10.2982 2 11 2V-2C9.99324 -2 9.01077 -1.88518 8.06593 -1.66707L8.96564 2.23043ZM7.74848 2.60472C8.01587 2.50107 8.28939 2.40986 8.56837 2.3318L7.49051 -1.52024C7.08626 -1.40712 6.68999 -1.27498 6.30276 -1.12488L7.74848 2.60472ZM8.28572 4.71428C8.28572 3.56399 8.50053 2.46861 8.89042 1.46277L5.16082 0.017069C4.59506 1.4766 4.28572 3.06168 4.28572 4.71428H8.28572ZM17.2857 13.7143C12.3152 13.7143 8.28572 9.68484 8.28572 4.71428H4.28572C4.28572 11.894 10.106 17.7143 17.2857 17.7143V13.7143ZM20.5372 13.1096C19.5314 13.4995 18.436 13.7143 17.2857 13.7143V17.7143C18.9383 17.7143 20.5234 17.4049 21.9829 16.8392L20.5372 13.1096ZM19.3953 14.2515C18.0902 17.6183 14.8208 20 11 20V24C16.5266 24 21.243 20.5521 23.1249 15.6972L19.3953 14.2515ZM11 20C6.02944 20 2 15.9706 2 11H-2C-2 18.1797 3.8203 24 11 24V20ZM2 11C2 6.87449 4.77751 3.39253 8.56836 2.3318L7.49051 -1.52024C2.01724 0.0112522 -2 5.0339 -2 11H2Z" fill="#373D34" mask="url(#path-1-inside-1)"/>
</svg>
