<svg width="30" height="30" viewBox="0 0 30 30" fill="none" xmlns="http://www.w3.org/2000/svg">
<g clip-path="url(#clip0)">
<path d="M20.3175 9.68267C18.9683 8.33347 17.0635 7.46045 15 7.46045C12.9365 7.46045 11.0318 8.29378 9.68256 9.68267C8.33336 11.0319 7.46034 12.9366 7.46034 15.0001C7.46034 17.0636 8.33336 18.9684 9.68256 20.3176C11.0318 21.6668 12.9365 22.5398 15 22.5398C17.0635 22.5398 18.9683 21.7065 20.3175 20.3176C21.6667 18.9684 22.5397 17.0636 22.5397 15.0001C22.5397 12.9366 21.7064 11.0319 20.3175 9.68267ZM18.8889 18.889C17.8969 19.8811 16.508 20.4763 15 20.4763C13.4921 20.4763 12.1032 19.8811 11.1111 18.889C10.1191 17.897 9.52383 16.5081 9.52383 15.0001C9.52383 13.4922 10.1191 12.1033 11.1111 11.1112C12.1032 10.1192 13.4921 9.52394 15 9.52394C16.508 9.52394 17.8969 10.1192 18.8889 11.1112C19.881 12.1033 20.4762 13.4922 20.4762 15.0001C20.4762 16.5081 19.881 17.897 18.8889 18.889Z" fill="white"/>
<path d="M28.9682 13.9683H25.9127C25.3571 13.9683 24.8809 14.4445 24.8809 15C24.8809 15.5556 25.3571 16.0318 25.9127 16.0318H28.9682C29.5238 16.0318 30 15.5556 30 15C30 14.4445 29.5238 13.9683 28.9682 13.9683Z" fill="white"/>
<path d="M15 24.8809C14.4444 24.8809 13.9682 25.3571 13.9682 25.9126V28.9682C13.9682 29.5237 14.4444 29.9999 15 29.9999C15.5555 29.9999 16.0317 29.5237 16.0317 28.9682V25.9126C16.0317 25.3571 15.5555 24.8809 15 24.8809Z" fill="white"/>
<path d="M25.5952 24.1667L23.4127 21.9841C23.0555 21.5873 22.3809 21.5873 21.9841 21.9841C21.5873 22.381 21.5873 23.0159 21.9841 23.4127L24.1667 25.5953C24.5635 25.9921 25.1984 25.9921 25.5952 25.5953C25.9921 25.1984 25.9921 24.5635 25.5952 24.1667Z" fill="white"/>
<path d="M15 0C14.4444 0 13.9682 0.47619 13.9682 1.03175V4.0873C13.9682 4.64286 14.4444 5.11905 15 5.11905C15.5555 5.11905 16.0317 4.64286 16.0317 4.0873V1.03175C16.0317 0.47619 15.5555 0 15 0Z" fill="white"/>
<path d="M25.6349 4.40455C25.2381 4.00773 24.6032 4.00773 24.2064 4.40455L22.0238 6.58709C21.627 6.98392 21.627 7.61884 22.0238 8.01566C22.381 8.41249 23.0556 8.41249 23.4524 8.01566L25.6349 5.83312C26.0317 5.4363 26.0317 4.80138 25.6349 4.40455Z" fill="white"/>
<path d="M4.0873 13.9683H1.03175C0.47619 13.9683 0 14.4445 0 15C0 15.5556 0.436508 16.0318 1.03175 16.0318H4.0873C4.64286 16.0318 5.11905 15.5556 5.11905 15C5.11905 14.4445 4.64286 13.9683 4.0873 13.9683Z" fill="white"/>
<path d="M7.97621 21.9841C7.61906 21.5873 6.94446 21.5873 6.54763 21.9841L4.36509 24.1667C3.96827 24.5635 3.96827 25.1984 4.36509 25.5953C4.76192 25.9921 5.39684 25.9921 5.79367 25.5953L7.97621 23.4127C8.37303 23.0159 8.37303 22.381 7.97621 21.9841Z" fill="white"/>
<path d="M7.97621 6.58709L5.79367 4.40455C5.39684 4.00773 4.76192 4.00773 4.36509 4.40455C3.96827 4.80138 3.96827 5.4363 4.36509 5.83312L6.54763 8.01566C6.94446 8.41249 7.57938 8.41249 7.97621 8.01566C8.37303 7.61884 8.37303 6.98392 7.97621 6.58709Z" fill="white"/>
</g>
<defs>
<clipPath id="clip0">
<rect width="30" height="30" fill="white"/>
</clipPath>
</defs>
</svg>
